<?xml version="1.0" encoding="utf-8"?>
<!-- Generator: Adobe Illustrator 16.0.0, SVG Export Plug-In . SVG Version: 6.00 Build 0)  -->
<!DOCTYPE svg PUBLIC "-//W3C//DTD SVG 1.1//EN" "http://www.w3.org/Graphics/SVG/1.1/DTD/svg11.dtd" [
	<!ENTITY ns_flows "http://ns.adobe.com/Flows/1.0/">
	<!ENTITY ns_extend "http://ns.adobe.com/Extensibility/1.0/">
	<!ENTITY ns_ai "http://ns.adobe.com/AdobeIllustrator/10.0/">
	<!ENTITY ns_graphs "http://ns.adobe.com/Graphs/1.0/">
]>
<svg version="1.1" id="Capa_1" xmlns:x="&ns_extend;" xmlns:i="&ns_ai;" xmlns:graph="&ns_graphs;"
	 xmlns="http://www.w3.org/2000/svg" xmlns:xlink="http://www.w3.org/1999/xlink" xmlns:a="http://ns.adobe.com/AdobeSVGViewerExtensions/3.0/"
	 x="0px" y="0px" width="191.938px" height="32.761px" viewBox="0 0 191.938 32.761" enable-background="new 0 0 191.938 32.761"
	 xml:space="preserve">
<g>
	<path fill-rule="evenodd" clip-rule="evenodd" d="M0,19.856c0.048-0.479,0.089-0.958,0.144-1.437
		c0.66-5.663,5.27-10.318,10.929-11.003c3.573-0.432,6.779,0.473,9.646,2.666c0.828,0.634,0.784,1.857,0.326,2.424
		c-0.6,0.739-1.652,0.857-2.426,0.244c-4.807-3.801-11.852-2.188-14.35,3.412c-2.764,6.199,1.479,12.364,7.161,13.09
		c2.173,0.277,4.237-0.056,6.146-1.189c0.24-0.143,0.348-0.29,0.344-0.583c-0.016-1.497-0.006-2.994-0.006-4.548
		c-0.159,0-0.299,0-0.438,0c-1.301,0-2.602,0-3.902-0.001c-1.012-0.001-1.737-0.71-1.732-1.69c0.004-0.965,0.721-1.682,1.707-1.686
		c2.023-0.006,4.048-0.006,6.071,0c0.935,0.004,1.678,0.74,1.681,1.678c0.008,2.483,0.002,4.967,0.004,7.451
		c0,0.566-0.24,1.008-0.684,1.352c-2.75,2.129-5.869,3.021-9.309,2.605c-5.076-0.613-8.494-3.457-10.471-8.1
		c-0.527-1.24-0.734-2.568-0.777-3.919C0.06,20.499,0.021,20.375,0,20.251C0,20.12,0,19.988,0,19.856z"/>
	<path fill-rule="evenodd" clip-rule="evenodd" d="M73.886,16.384c-0.962,1.925-1.924,3.85-2.887,5.773
		c-1.589,3.166-3.184,6.328-4.764,9.498c-0.335,0.672-0.811,1.07-1.592,1.072c-0.787,0-1.26-0.416-1.592-1.078
		c-2.378-4.752-4.762-9.501-7.144-14.25c-0.173-0.346-0.356-0.688-0.62-1.017c0,0.137,0,0.273,0,0.411c0,4.743,0,9.487-0.001,14.23
		c0,0.814-0.501,1.477-1.245,1.66c-0.762,0.189-1.564-0.129-1.912-0.824c-0.146-0.293-0.223-0.653-0.223-0.982
		c-0.013-7.241-0.014-14.482-0.006-21.723c0.002-1.325,1.079-2.145,2.262-1.756c0.526,0.172,0.826,0.57,1.063,1.044
		c1.983,3.967,3.97,7.931,5.956,11.896c1.088,2.17,2.176,4.34,3.265,6.51c0.053,0.105,0.111,0.207,0.196,0.365
		c0.096-0.183,0.176-0.327,0.25-0.475c3.057-6.1,6.111-12.2,9.166-18.299c0.471-0.938,1.271-1.321,2.162-1.041
		c0.645,0.203,1.098,0.783,1.141,1.459c0.002,0.039,0.004,0.078,0.004,0.118c0,7.358,0.004,14.718-0.004,22.077
		c0,1.219-1.189,2.002-2.326,1.563c-0.652-0.252-1.059-0.873-1.059-1.646c-0.004-2.445-0.002-4.889-0.002-7.333
		c0-2.273,0-4.547,0-6.82c0-0.14,0-0.28,0-0.42C73.946,16.392,73.916,16.388,73.886,16.384z"/>
	<path fill-rule="evenodd" clip-rule="evenodd" d="M23.931,20.034c-0.146-6.971,5.897-12.83,12.906-12.748
		c6.759,0.08,12.74,5.982,12.581,13.033c-0.147,6.521-5.81,12.564-13.005,12.439C29.794,32.644,23.806,27.048,23.931,20.034z
		 M36.674,29.332c5.009,0.149,9.239-4.227,9.341-9.093c0.109-5.189-4.273-9.43-9.119-9.561c-5.113-0.139-9.648,4.225-9.588,9.314
		C27.372,25.239,31.419,29.332,36.674,29.332z"/>
	<path fill-rule="evenodd" clip-rule="evenodd" d="M92.614,32.723c-6.721,0.18-12.774-5.573-12.746-12.761
		c0.027-7.011,6.004-12.773,12.959-12.675c6.625,0.093,12.564,5.767,12.56,12.729C105.381,27.057,99.392,32.915,92.614,32.723z
		 M92.643,29.332c5.206,0,9.31-4.14,9.335-9.321c0.023-5.16-4.391-9.21-9.135-9.332c-5.038-0.129-9.591,4.137-9.58,9.324
		C83.274,25.354,87.824,29.505,92.643,29.332z"/>
	<path fill-rule="evenodd" clip-rule="evenodd" d="M155.669,10.71c0,2.572,0,5.078,0,7.635c0.169,0,0.322,0,0.476,0
		c2.956,0,5.912-0.002,8.868,0.002c0.842,0.002,1.515,0.582,1.65,1.401c0.133,0.812-0.33,1.612-1.107,1.866
		c-0.22,0.072-0.464,0.092-0.696,0.092c-2.877,0.006-5.755,0.004-8.632,0.004c-0.17,0-0.341,0-0.574,0c0,0.174,0,0.324,0,0.475
		c0,2.916,0.002,5.834-0.002,8.75c-0.002,1.117-0.75,1.838-1.84,1.787c-0.803-0.037-1.496-0.715-1.547-1.516
		c-0.008-0.104-0.002-0.21-0.002-0.314c0-7.24,0-14.479,0-21.719c0-1.199,0.649-1.854,1.842-1.854c4.849,0,9.697-0.002,14.545,0.002
		c0.763,0,1.392,0.453,1.619,1.146c0.236,0.721,0.02,1.514-0.633,1.906c-0.339,0.204-0.785,0.32-1.184,0.322
		c-4.099,0.022-8.198,0.014-12.297,0.014C156,10.71,155.847,10.71,155.669,10.71z"/>
	<path fill-rule="evenodd" clip-rule="evenodd" d="M113.721,32.734c-2.819-0.095-5.079-1.236-6.683-3.595
		c-0.438-0.643-0.369-1.535,0.13-2.084c0.519-0.571,1.394-0.766,2.048-0.389c0.281,0.162,0.523,0.436,0.717,0.705
		c1.111,1.556,2.639,2.216,4.488,1.894c1.916-0.335,3.117-1.56,3.559-3.456c0.596-2.566-1.269-4.996-4-5.313
		c-2.812-0.326-4.786-1.841-5.672-4.504c-0.885-2.663-0.219-5.039,1.857-6.992c2.767-2.601,7.718-2.287,10.074,1.549
		c0.467,0.761,0.26,1.749-0.427,2.268c-0.704,0.531-1.637,0.429-2.27-0.257c-0.151-0.163-0.306-0.333-0.413-0.524
		c-0.783-1.396-3.129-1.805-4.611-0.538c-1.425,1.218-1.564,3.265-0.281,4.616c0.544,0.571,1.195,0.938,1.994,0.998
		c3.66,0.282,6.425,3.018,7.066,6.111C122.481,28.942,117.828,32.851,113.721,32.734z"/>
	<path fill-rule="evenodd" clip-rule="evenodd" d="M183.974,10.71c0,0.221,0,0.389,0,0.557c0,6.568,0.002,13.137-0.001,19.705
		c0,1.264-1.134,2.086-2.286,1.654c-0.679-0.255-1.035-0.775-1.102-1.495c-0.012-0.13-0.002-0.263-0.002-0.394
		c0-6.49,0-12.979,0-19.469c0-0.17,0-0.338,0-0.559c-0.166,0-0.306,0-0.445,0c-1.918,0-3.836,0.01-5.754-0.004
		c-1.219-0.009-2.016-1.052-1.695-2.184c0.205-0.721,0.86-1.201,1.658-1.202c3.77-0.003,7.541-0.001,11.311-0.001
		c1.51,0,3.021-0.002,4.531,0c1.002,0.002,1.73,0.688,1.749,1.637c0.019,1.004-0.685,1.741-1.722,1.749
		c-1.917,0.015-3.835,0.005-5.753,0.005C184.319,10.71,184.176,10.71,183.974,10.71z"/>
	<path fill-rule="evenodd" clip-rule="evenodd" fill="#FA0E4D" d="M136.448,6.011c-7.27-0.01-13.352,6.064-13.431,13.195
		c-0.083,7.5,6.136,13.35,12.991,13.539c7.523,0.209,13.885-6.032,13.77-13.338C149.937,12.056,143.541,6.021,136.448,6.011z
		 M146.228,19.829c-0.196,4.86-4.462,9.589-10.283,9.346c-4.961-0.206-9.429-4.448-9.346-9.844
		c-0.074-5.431,4.701-9.824,9.918-9.762C141.747,9.632,146.456,14.149,146.228,19.829z"/>
	<path fill-rule="evenodd" clip-rule="evenodd" fill="#FA0E4D" d="M140.243,4.126c1.17,0.013,2.084-0.887,2.084-2.051
		c0-1.154-0.936-2.09-2.075-2.075s-2.036,0.923-2.038,2.067C138.212,3.228,139.085,4.114,140.243,4.126z"/>
	<path fill-rule="evenodd" clip-rule="evenodd" fill="#FA0E4D" d="M132.66,4.126c1.16,0.004,2.089-0.916,2.083-2.064
		c-0.004-1.124-0.926-2.047-2.061-2.062c-1.143-0.015-2.068,0.916-2.066,2.077C130.62,3.235,131.505,4.122,132.66,4.126z"/>
	<path fill-rule="evenodd" clip-rule="evenodd" fill="#FA0E4D" d="M131.01,14.009c-1.132,0-1.971,0.79-1.97,1.855
		c0.002,1.057,0.855,1.863,1.973,1.863s1.969-0.808,1.971-1.867C132.985,14.798,132.144,14.008,131.01,14.009z"/>
</g>
</svg>
